<svg width="215" height="58" viewBox="0 0 215 58" fill="none" xmlns="http://www.w3.org/2000/svg">
<g filter="url(#filter0_d_11_265)">
<rect x="4.02539" y="4" width="206.249" height="49.6166" rx="8" fill="#FFF200"/>
<rect x="4.52539" y="4.5" width="205.249" height="48.6166" rx="7.5" stroke="#FFF200"/>
</g>
<path d="M52.381 27.7776C52.0395 27.7787 51.7629 28.055 51.7619 28.3966V36.209C51.759 37.2333 50.9291 38.0631 49.9048 38.0662H30.0952C29.0709 38.0631 28.241 37.2333 28.2381 36.209V28.3966C28.2381 28.0548 27.9611 27.7776 27.619 27.7776C27.277 27.7776 27 28.0548 27 28.3966V36.209C27.0008 37.9182 28.3861 39.3035 30.0952 39.3043H49.9048C51.6139 39.3035 52.9992 37.9182 53 36.209V28.3966C52.999 28.055 52.7224 27.7787 52.381 27.7776Z" fill="black"/>
<path d="M35.4687 31.3124L39.4059 34.6862C39.4094 34.6862 39.4121 34.6891 39.4121 34.6924L39.4306 34.711C39.4368 34.7171 39.4492 34.7233 39.4554 34.7295C39.4614 34.7373 39.4703 34.7417 39.4802 34.7419C39.4864 34.7481 39.4987 34.7543 39.5049 34.7605C39.5111 34.7667 39.5235 34.7667 39.5297 34.7729C39.5359 34.779 39.5483 34.779 39.5606 34.7852C39.5668 34.7914 39.5792 34.7914 39.5854 34.7976C39.5978 34.8038 39.604 34.8038 39.6164 34.81C39.6225 34.81 39.6349 34.8162 39.6411 34.8162C39.6535 34.8162 39.6597 34.8224 39.6721 34.8224C39.6783 34.8224 39.6906 34.8286 39.6968 34.8286C39.7092 34.8286 39.7216 34.8348 39.734 34.8348H39.8949C39.9073 34.8348 39.9197 34.8286 39.9321 34.8286C39.9383 34.8286 39.9506 34.8224 39.9568 34.8224C39.9692 34.8224 39.9754 34.8162 39.9878 34.8162C39.994 34.8162 40.0064 34.81 40.0125 34.81C40.0249 34.8038 40.0311 34.8038 40.0435 34.7976C40.0497 34.7914 40.0621 34.7914 40.0683 34.7852C40.0806 34.779 40.0868 34.779 40.0992 34.7729C40.1054 34.7667 40.1178 34.7667 40.124 34.7605C40.1302 34.7543 40.1425 34.7481 40.1487 34.7419C40.1549 34.7357 40.1611 34.7357 40.1735 34.7295C40.1797 34.7233 40.1921 34.7171 40.1983 34.711L40.2168 34.6924C40.2203 34.6924 40.223 34.6895 40.223 34.6862L44.1602 31.3124C44.4202 31.0901 44.4505 30.6993 44.2283 30.4395C44.0062 30.1797 43.6154 30.1492 43.3554 30.3714L40.4335 32.8724V17.619C40.4335 17.277 40.1565 17 39.8145 17C39.4724 17 39.1954 17.277 39.1954 17.619V32.8724L36.2735 30.3714C36.0135 30.1492 35.6227 30.1797 35.4006 30.4395C35.1784 30.6993 35.2087 31.0901 35.4687 31.3124Z" fill="black"/>
<path d="M70.6504 34V19.7812H74.6641C75.901 19.7812 76.9948 20.0547 77.9453 20.6016C78.8958 21.1484 79.6283 21.9264 80.1426 22.9355C80.6634 23.9447 80.9271 25.1035 80.9336 26.4121V27.3203C80.9336 28.6615 80.6732 29.8366 80.1523 30.8457C79.638 31.8548 78.8991 32.6296 77.9355 33.1699C76.9785 33.7103 75.862 33.987 74.5859 34H70.6504ZM72.5254 21.3242V32.4668H74.498C75.9434 32.4668 77.0664 32.0176 77.8672 31.1191C78.6745 30.2207 79.0781 28.9414 79.0781 27.2812V26.4512C79.0781 24.8366 78.6973 23.5833 77.9355 22.6914C77.1803 21.793 76.1061 21.3372 74.7129 21.3242H72.5254ZM83.0137 28.6191C83.0137 27.584 83.2155 26.653 83.6191 25.8262C84.0293 24.9993 84.5957 24.3613 85.3184 23.9121C86.0475 23.4629 86.8776 23.2383 87.8086 23.2383C89.2474 23.2383 90.4095 23.7363 91.2949 24.7324C92.1868 25.7285 92.6328 27.0534 92.6328 28.707V28.834C92.6328 29.8626 92.4342 30.7871 92.0371 31.6074C91.6465 32.4212 91.0833 33.056 90.3477 33.5117C89.6185 33.9674 88.7786 34.1953 87.8281 34.1953C86.3958 34.1953 85.2337 33.6973 84.3418 32.7012C83.4564 31.7051 83.0137 30.3867 83.0137 28.7461V28.6191ZM84.8301 28.834C84.8301 30.0059 85.1003 30.9466 85.6406 31.6562C86.1875 32.3659 86.9167 32.7207 87.8281 32.7207C88.7461 32.7207 89.4753 32.3626 90.0156 31.6465C90.556 30.9238 90.8262 29.9147 90.8262 28.6191C90.8262 27.4603 90.5495 26.5228 89.9961 25.8066C89.4492 25.084 88.7201 24.7227 87.8086 24.7227C86.9167 24.7227 86.1973 25.0775 85.6504 25.7871C85.1035 26.4967 84.8301 27.5124 84.8301 28.834ZM104.254 31.5098L106.285 23.4336H108.092L105.016 34H103.551L100.982 25.9922L98.4824 34H97.0176L93.9512 23.4336H95.748L97.8281 31.3438L100.289 23.4336H101.744L104.254 31.5098ZM111.646 23.4336L111.705 24.7617C112.512 23.7461 113.567 23.2383 114.869 23.2383C117.102 23.2383 118.229 24.498 118.248 27.0176V34H116.441V27.0078C116.435 26.2461 116.259 25.6829 115.914 25.3184C115.576 24.9538 115.045 24.7715 114.322 24.7715C113.736 24.7715 113.222 24.9277 112.779 25.2402C112.337 25.5527 111.992 25.9629 111.744 26.4707V34H109.938V23.4336H111.646ZM122.936 34H121.129V19H122.936V34ZM125.357 28.6191C125.357 27.584 125.559 26.653 125.963 25.8262C126.373 24.9993 126.939 24.3613 127.662 23.9121C128.391 23.4629 129.221 23.2383 130.152 23.2383C131.591 23.2383 132.753 23.7363 133.639 24.7324C134.531 25.7285 134.977 27.0534 134.977 28.707V28.834C134.977 29.8626 134.778 30.7871 134.381 31.6074C133.99 32.4212 133.427 33.056 132.691 33.5117C131.962 33.9674 131.122 34.1953 130.172 34.1953C128.74 34.1953 127.577 33.6973 126.686 32.7012C125.8 31.7051 125.357 30.3867 125.357 28.7461V28.6191ZM127.174 28.834C127.174 30.0059 127.444 30.9466 127.984 31.6562C128.531 32.3659 129.26 32.7207 130.172 32.7207C131.09 32.7207 131.819 32.3626 132.359 31.6465C132.9 30.9238 133.17 29.9147 133.17 28.6191C133.17 27.4603 132.893 26.5228 132.34 25.8066C131.793 25.084 131.064 24.7227 130.152 24.7227C129.26 24.7227 128.541 25.0775 127.994 25.7871C127.447 26.4967 127.174 27.5124 127.174 28.834ZM143.766 34C143.661 33.7917 143.577 33.4206 143.512 32.8867C142.672 33.7591 141.669 34.1953 140.504 34.1953C139.462 34.1953 138.606 33.9023 137.936 33.3164C137.271 32.724 136.939 31.9753 136.939 31.0703C136.939 29.9701 137.356 29.1172 138.189 28.5117C139.029 27.8997 140.208 27.5938 141.725 27.5938H143.482V26.7637C143.482 26.1322 143.294 25.6309 142.916 25.2598C142.538 24.8822 141.982 24.6934 141.246 24.6934C140.602 24.6934 140.061 24.8561 139.625 25.1816C139.189 25.5072 138.971 25.901 138.971 26.3633H137.154C137.154 25.8359 137.34 25.3281 137.711 24.8398C138.089 24.3451 138.596 23.9544 139.234 23.668C139.879 23.3815 140.585 23.2383 141.354 23.2383C142.571 23.2383 143.525 23.5443 144.215 24.1562C144.905 24.7617 145.263 25.5983 145.289 26.666V31.5293C145.289 32.4993 145.413 33.2708 145.66 33.8438V34H143.766ZM140.768 32.623C141.334 32.623 141.871 32.4766 142.379 32.1836C142.887 31.8906 143.255 31.5098 143.482 31.041V28.873H142.066C139.853 28.873 138.746 29.5208 138.746 30.8164C138.746 31.3828 138.935 31.8255 139.312 32.1445C139.69 32.4635 140.175 32.623 140.768 32.623ZM149.83 23.4336L149.889 24.7617C150.696 23.7461 151.751 23.2383 153.053 23.2383C155.286 23.2383 156.412 24.498 156.432 27.0176V34H154.625V27.0078C154.618 26.2461 154.443 25.6829 154.098 25.3184C153.759 24.9538 153.229 24.7715 152.506 24.7715C151.92 24.7715 151.406 24.9277 150.963 25.2402C150.52 25.5527 150.175 25.9629 149.928 26.4707V34H148.121V23.4336H149.83ZM158.717 28.6289C158.717 27.0078 159.101 25.7057 159.869 24.7227C160.637 23.7331 161.643 23.2383 162.887 23.2383C164.124 23.2383 165.104 23.6615 165.826 24.5078V19H167.633V34H165.973L165.885 32.8672C165.162 33.7526 164.156 34.1953 162.867 34.1953C161.643 34.1953 160.644 33.694 159.869 32.6914C159.101 31.6888 158.717 30.3802 158.717 28.7656V28.6289ZM160.523 28.834C160.523 30.0319 160.771 30.9694 161.266 31.6465C161.76 32.3236 162.444 32.6621 163.316 32.6621C164.462 32.6621 165.299 32.1478 165.826 31.1191V26.2656C165.286 25.2695 164.456 24.7715 163.336 24.7715C162.451 24.7715 161.76 25.1133 161.266 25.7969C160.771 26.4805 160.523 27.4928 160.523 28.834Z" fill="black"/>
<defs>
<filter id="filter0_d_11_265" x="0.0253906" y="0" width="214.249" height="57.6167" filterUnits="userSpaceOnUse" color-interpolation-filters="sRGB">
<feFlood flood-opacity="0" result="BackgroundImageFix"/>
<feColorMatrix in="SourceAlpha" type="matrix" values="0 0 0 0 0 0 0 0 0 0 0 0 0 0 0 0 0 0 127 0" result="hardAlpha"/>
<feOffset/>
<feGaussianBlur stdDeviation="2"/>
<feColorMatrix type="matrix" values="0 0 0 0 0 0 0 0 0 0 0 0 0 0 0 0 0 0 0.25 0"/>
<feBlend mode="normal" in2="BackgroundImageFix" result="effect1_dropShadow_11_265"/>
<feBlend mode="normal" in="SourceGraphic" in2="effect1_dropShadow_11_265" result="shape"/>
</filter>
</defs>
</svg>
